<svg width="500" height="500" viewBox="0 0 500 500" fill="none" xmlns="http://www.w3.org/2000/svg">
<g clip-path="url(#clip0_243_9)">
<mask id="mask0_243_9" style="mask-type:luminance" maskUnits="userSpaceOnUse" x="0" y="0" width="500" height="500">
<path d="M500 0H0V500H500V0Z" fill="white"/>
</mask>
<g mask="url(#mask0_243_9)">
<path d="M489.226 240C492.799 246.188 492.799 253.812 489.226 260L378.274 452.176C374.701 458.364 368.098 462.176 360.953 462.176H139.047C131.902 462.176 125.299 458.364 121.727 452.176L10.7735 260C7.20084 253.812 7.20084 246.188 10.7735 240L121.727 47.8237C125.299 41.6357 131.902 37.8238 139.047 37.8238H360.953C368.098 37.8238 374.701 41.6358 378.274 47.8238L489.226 240Z" fill="#4B32C3"/>
<path d="M426 338.919C426 345.943 422.221 352.435 416.086 355.947L259.913 445.365C253.778 448.878 246.22 448.878 240.086 445.365L83.9135 355.947C77.779 352.435 74 345.943 74 338.919V160.081C74 153.057 77.779 146.565 83.9135 143.053L240.087 53.6342C246.221 50.1219 253.778 50.1219 259.913 53.6342L416.086 143.053C422.221 146.565 426 153.057 426 160.081V338.919Z" fill="white" fill-opacity="0.3"/>
<path d="M389.83 240.959C392.723 246.244 392.723 252.756 389.83 258.041L327.18 372.459C324.286 377.744 318.938 381 313.15 381H187.85C182.063 381 176.714 377.744 173.82 372.459L111.17 258.041C108.277 252.756 108.277 246.244 111.17 240.959L173.82 126.541C176.714 121.256 182.063 118 187.85 118H313.15C318.938 118 324.286 121.256 327.18 126.541L389.83 240.959Z" fill="white" fill-opacity="0.3"/>
<path fill-rule="evenodd" clip-rule="evenodd" d="M228.059 164.353C228.53 161.998 229.801 159.88 231.658 158.357C233.514 156.834 235.84 156.001 238.241 156H262.759C265.16 156.001 267.486 156.834 269.342 158.357C271.199 159.88 272.47 161.998 272.941 164.353L276.379 181.515C283.636 184.28 290.402 188.191 296.42 193.099L313.022 187.489C315.296 186.72 317.766 186.763 320.012 187.609C322.259 188.456 324.142 190.054 325.343 192.132L337.603 213.367C338.804 215.446 339.249 217.877 338.86 220.246C338.472 222.616 337.275 224.777 335.473 226.364L322.31 237.927C323.537 245.593 323.537 253.406 322.31 261.073L335.473 272.636C337.274 274.221 338.472 276.38 338.862 278.747C339.252 281.114 338.811 283.543 337.613 285.622L325.354 306.867C324.152 308.948 322.267 310.548 320.018 311.395C317.77 312.241 315.297 312.282 313.022 311.511L296.42 305.901C290.402 310.809 283.636 314.719 276.379 317.485L272.951 334.647C272.48 337.002 271.209 339.12 269.353 340.643C267.497 342.166 265.17 342.998 262.77 343H238.241C235.84 342.998 233.514 342.166 231.658 340.643C229.801 339.12 228.53 337.002 228.059 334.647L224.621 317.485C217.364 314.719 210.598 310.809 204.58 305.901L187.978 311.511C185.704 312.28 183.234 312.237 180.988 311.391C178.741 310.544 176.858 308.946 175.657 306.867L163.397 285.632C162.196 283.554 161.751 281.123 162.14 278.754C162.528 276.384 163.725 274.223 165.527 272.636L178.69 261.063C177.464 253.399 177.464 245.59 178.69 237.927L165.527 226.364C163.726 224.779 162.528 222.62 162.138 220.253C161.748 217.886 162.189 215.457 163.387 213.378L175.646 192.132C176.848 190.052 178.733 188.452 180.982 187.605C183.23 186.759 185.703 186.717 187.978 187.489L204.58 193.099C210.601 188.19 217.371 184.279 224.631 181.515L228.059 164.353ZM250.5 280.667C258.766 280.667 266.694 277.383 272.539 271.538C278.384 265.693 281.667 257.766 281.667 249.5C281.667 241.234 278.384 233.307 272.539 227.462C266.694 221.617 258.766 218.333 250.5 218.333C242.234 218.333 234.306 221.617 228.461 227.462C222.616 233.307 219.333 241.234 219.333 249.5C219.333 257.766 222.616 265.693 228.461 271.538C234.306 277.383 242.234 280.667 250.5 280.667Z" fill="white"/>
</g>
</g>
<defs>
<clipPath id="clip0_243_9">
<rect width="500" height="500" fill="white"/>
</clipPath>
</defs>
</svg>
